<svg xmlns="http://www.w3.org/2000/svg" width="256" height="256" viewBox="0 0 256 256">
  <defs>
    <linearGradient id="g" x1="0" y1="0" x2="1" y2="1">
      <stop offset="0" stop-color="#ff7a00"/>
      <stop offset="1" stop-color="#ffb703"/>
    </linearGradient>
  </defs>
  <rect width="256" height="256" rx="56" fill="#0f1226"/>
  <path fill="url(#g)" d="M128 28c-26 26-41 51-41 78 0 22 11 37 28 49-4-10-2-22 6-34 7-11 20-22 30-34 16 22 32 43 32 71 0 42-28 70-55 70s-55-28-55-70C73 104 95 68 128 28z"/>
  <path fill="#ffffff" fill-opacity=".9" d="M86 200c12 18 32 28 42 28s30-10 42-28c-12 8-26 12-42 12s-30-4-42-12z"/>
</svg>

